<svg width="439" height="1317" viewBox="0 0 439 1317" fill="none" xmlns="http://www.w3.org/2000/svg">
<g clip-path="url(#clip0_309_54)">
<g style="mix-blend-mode:lighten">
<g style="mix-blend-mode:lighten">
<path style="mix-blend-mode:lighten" d="M124.162 127.237C161.064 104.097 235.74 110.262 239.219 320.048C243.567 582.283 83.6968 630.281 59.6254 902.34C35.5542 1174.4 173.015 1208.9 218.35 1174.54" stroke="url(#paint0_linear_309_54)"/>
</g>
<g style="mix-blend-mode:lighten">
<path style="mix-blend-mode:lighten" d="M133.188 127.948C170.091 104.807 244.766 110.973 248.245 320.76C252.594 582.994 92.7233 630.993 68.6516 903.05C44.5806 1175.11 182.042 1209.61 227.376 1175.25" stroke="url(#paint1_linear_309_54)"/>
</g>
<g style="mix-blend-mode:lighten">
<path style="mix-blend-mode:lighten" d="M142.215 128.659C179.118 105.518 253.793 111.684 257.272 321.47C261.621 583.704 101.75 631.703 77.6792 903.761C53.6078 1175.82 191.07 1210.32 236.404 1175.96" stroke="url(#paint2_linear_309_54)"/>
</g>
<g style="mix-blend-mode:lighten">
<path style="mix-blend-mode:lighten" d="M151.243 129.37C188.146 106.229 262.82 112.395 266.299 322.182C270.648 584.415 110.778 632.414 86.7064 904.472C62.6351 1176.53 200.097 1211.04 245.431 1176.68" stroke="url(#paint3_linear_309_54)"/>
</g>
<g style="mix-blend-mode:lighten">
<path style="mix-blend-mode:lighten" d="M160.271 130.081C197.173 106.941 271.848 113.106 275.327 322.892C279.676 585.126 119.805 633.125 95.7338 905.184C71.6626 1177.24 209.124 1211.75 254.459 1177.39" stroke="url(#paint4_linear_309_54)"/>
</g>
<g style="mix-blend-mode:lighten">
<path style="mix-blend-mode:lighten" d="M169.297 130.792C206.2 107.651 280.875 113.816 284.354 323.603C288.702 585.837 128.832 633.836 104.76 905.894C80.689 1177.95 218.151 1212.46 263.485 1178.1" stroke="url(#paint5_linear_309_54)"/>
</g>
<g style="mix-blend-mode:lighten">
<path style="mix-blend-mode:lighten" d="M178.324 131.503C215.227 108.362 289.902 114.528 293.381 324.314C297.729 586.548 137.859 634.547 113.787 906.606C89.7165 1178.66 227.179 1213.17 272.513 1178.81" stroke="url(#paint6_linear_309_54)"/>
</g>
<g style="mix-blend-mode:lighten">
<path style="mix-blend-mode:lighten" d="M187.352 132.213C224.254 109.073 298.929 115.238 302.408 325.025C306.757 587.258 146.886 635.258 122.815 907.315C98.7435 1179.37 236.206 1213.88 281.541 1179.52" stroke="url(#paint7_linear_309_54)"/>
</g>
<g style="mix-blend-mode:lighten">
<path style="mix-blend-mode:lighten" d="M196.378 132.924C233.28 109.784 307.956 115.95 311.435 325.736C315.784 587.97 155.913 635.968 131.841 908.027C107.77 1180.09 245.233 1214.6 290.567 1180.24" stroke="url(#paint8_linear_309_54)"/>
</g>
<g style="mix-blend-mode:lighten">
<path style="mix-blend-mode:lighten" d="M205.405 133.636C242.308 110.495 316.983 116.66 320.462 326.447C324.81 588.681 164.94 636.68 140.868 908.737C116.797 1180.8 254.26 1215.31 299.592 1180.94" stroke="url(#paint9_linear_309_54)"/>
</g>
<g style="mix-blend-mode:lighten">
<path style="mix-blend-mode:lighten" d="M214.432 134.347C251.335 111.205 326.01 117.371 329.489 327.157C333.838 589.391 173.967 637.39 149.896 909.448C125.824 1181.51 263.287 1216.02 308.62 1181.65" stroke="url(#paint10_linear_309_54)"/>
</g>
<g style="mix-blend-mode:lighten">
<path style="mix-blend-mode:lighten" d="M223.46 135.057C260.362 111.917 335.037 118.082 338.516 327.869C342.865 590.102 182.994 638.102 158.923 910.159C134.852 1182.22 272.313 1216.72 317.648 1182.36" stroke="url(#paint11_linear_309_54)"/>
</g>
<g style="mix-blend-mode:lighten">
<path style="mix-blend-mode:lighten" d="M232.486 135.768C269.389 112.627 344.064 118.794 347.543 328.58C351.892 590.813 192.021 638.812 167.95 910.871C143.878 1182.93 281.34 1217.43 326.674 1183.07" stroke="url(#paint12_linear_309_54)"/>
</g>
<g style="mix-blend-mode:lighten">
<path style="mix-blend-mode:lighten" d="M241.513 136.479C278.416 113.339 353.091 119.504 356.57 329.29C360.919 591.524 201.048 639.523 176.977 911.581C152.906 1183.64 290.367 1218.14 335.702 1183.78" stroke="url(#paint13_linear_309_54)"/>
</g>
<g style="mix-blend-mode:lighten">
<path style="mix-blend-mode:lighten" d="M250.541 137.19C287.444 114.049 362.119 120.215 365.598 330.001C369.946 592.235 210.076 640.234 186.004 912.293C161.933 1184.35 299.395 1218.86 344.729 1184.5" stroke="url(#paint14_linear_309_54)"/>
</g>
<g style="mix-blend-mode:lighten">
<path style="mix-blend-mode:lighten" d="M259.567 137.9C296.47 114.76 371.145 120.925 374.624 330.712C378.973 592.945 219.102 640.945 195.031 913.002C170.959 1185.06 308.421 1219.57 353.756 1185.21" stroke="url(#paint15_linear_309_54)"/>
</g>
</g>
</g>
<defs>
<linearGradient id="paint0_linear_309_54" x1="161.101" y1="112.756" x2="495.871" y2="1081.14" gradientUnits="userSpaceOnUse">
<stop stop-color="#8F00FF"/>
<stop offset="1" stop-color="#FF00E5"/>
</linearGradient>
<linearGradient id="paint1_linear_309_54" x1="170.127" y1="113.467" x2="504.899" y2="1081.85" gradientUnits="userSpaceOnUse">
<stop stop-color="#8F00FF"/>
<stop offset="1" stop-color="#FF00E5"/>
</linearGradient>
<linearGradient id="paint2_linear_309_54" x1="179.155" y1="114.177" x2="513.927" y2="1082.57" gradientUnits="userSpaceOnUse">
<stop stop-color="#8F00FF"/>
<stop offset="1" stop-color="#FF00E5"/>
</linearGradient>
<linearGradient id="paint3_linear_309_54" x1="188.182" y1="114.889" x2="522.955" y2="1083.28" gradientUnits="userSpaceOnUse">
<stop stop-color="#8F00FF"/>
<stop offset="1" stop-color="#FF00E5"/>
</linearGradient>
<linearGradient id="paint4_linear_309_54" x1="197.21" y1="115.6" x2="531.983" y2="1083.99" gradientUnits="userSpaceOnUse">
<stop stop-color="#8F00FF"/>
<stop offset="1" stop-color="#FF00E5"/>
</linearGradient>
<linearGradient id="paint5_linear_309_54" x1="206.236" y1="116.31" x2="541.011" y2="1084.7" gradientUnits="userSpaceOnUse">
<stop stop-color="#8F00FF"/>
<stop offset="1" stop-color="#FF00E5"/>
</linearGradient>
<linearGradient id="paint6_linear_309_54" x1="215.263" y1="117.021" x2="550.039" y2="1085.41" gradientUnits="userSpaceOnUse">
<stop stop-color="#8F00FF"/>
<stop offset="1" stop-color="#FF00E5"/>
</linearGradient>
<linearGradient id="paint7_linear_309_54" x1="224.29" y1="117.732" x2="559.059" y2="1086.12" gradientUnits="userSpaceOnUse">
<stop stop-color="#8F00FF"/>
<stop offset="1" stop-color="#FF00E5"/>
</linearGradient>
<linearGradient id="paint8_linear_309_54" x1="233.317" y1="118.443" x2="568.085" y2="1086.83" gradientUnits="userSpaceOnUse">
<stop stop-color="#8F00FF"/>
<stop offset="1" stop-color="#FF00E5"/>
</linearGradient>
<linearGradient id="paint9_linear_309_54" x1="242.344" y1="119.154" x2="577.113" y2="1087.54" gradientUnits="userSpaceOnUse">
<stop stop-color="#8F00FF"/>
<stop offset="1" stop-color="#FF00E5"/>
</linearGradient>
<linearGradient id="paint10_linear_309_54" x1="251.371" y1="119.864" x2="586.142" y2="1088.25" gradientUnits="userSpaceOnUse">
<stop stop-color="#8F00FF"/>
<stop offset="1" stop-color="#FF00E5"/>
</linearGradient>
<linearGradient id="paint11_linear_309_54" x1="260.399" y1="120.576" x2="595.169" y2="1088.96" gradientUnits="userSpaceOnUse">
<stop stop-color="#8F00FF"/>
<stop offset="1" stop-color="#FF00E5"/>
</linearGradient>
<linearGradient id="paint12_linear_309_54" x1="269.425" y1="121.287" x2="604.196" y2="1089.67" gradientUnits="userSpaceOnUse">
<stop stop-color="#8F00FF"/>
<stop offset="1" stop-color="#FF00E5"/>
</linearGradient>
<linearGradient id="paint13_linear_309_54" x1="278.453" y1="121.997" x2="613.225" y2="1090.39" gradientUnits="userSpaceOnUse">
<stop stop-color="#8F00FF"/>
<stop offset="1" stop-color="#FF00E5"/>
</linearGradient>
<linearGradient id="paint14_linear_309_54" x1="287.48" y1="122.708" x2="622.253" y2="1091.1" gradientUnits="userSpaceOnUse">
<stop stop-color="#8F00FF"/>
<stop offset="1" stop-color="#FF00E5"/>
</linearGradient>
<linearGradient id="paint15_linear_309_54" x1="296.506" y1="123.419" x2="631.28" y2="1091.81" gradientUnits="userSpaceOnUse">
<stop stop-color="#8F00FF"/>
<stop offset="1" stop-color="#FF00E5"/>
</linearGradient>
<clipPath id="clip0_309_54">
<rect width="431.785" height="1314.01" fill="white" transform="translate(6.27344) rotate(0.273555)"/>
</clipPath>
</defs>
</svg>
